<svg width="50" height="46" viewBox="0 0 50 46" fill="none" xmlns="http://www.w3.org/2000/svg">
<rect width="49.8162" height="45.446" rx="15" fill="white"/>
<g clip-path="url(#clip0_60_10)">
<path d="M20.3756 9.98607C17.3891 10.9312 14.8136 12.7251 13.0274 15.1043C11.2411 17.4835 10.3382 20.3225 10.4514 23.2044C10.5645 26.0863 11.6877 28.8591 13.656 31.1156C15.6242 33.3721 18.3338 34.9934 21.3867 35.7412C23.8618 36.3238 26.4549 36.3494 28.9432 35.8157C31.1973 35.3538 33.2814 34.3658 34.9912 32.9484C36.7707 31.4281 38.0624 29.4941 38.7274 27.3543C39.4499 25.0272 39.5785 22.5802 39.1034 20.2008H25.2046V25.4604H33.2538C33.093 26.2993 32.7482 27.1 32.2403 27.8145C31.7323 28.529 31.0716 29.1426 30.2976 29.6187C29.3148 30.2121 28.2068 30.6112 27.0447 30.7904C25.8794 30.9881 24.684 30.9881 23.5187 30.7904C22.3375 30.5679 21.2201 30.1231 20.2378 29.4845C18.6596 28.4654 17.4746 27.0175 16.8519 25.3475C16.2188 23.6462 16.2188 21.8019 16.8519 20.1006C17.2951 18.9081 18.0279 17.8224 18.9955 16.9244C20.1028 15.8779 21.5047 15.1298 23.0473 14.7623C24.59 14.3948 26.2138 14.422 27.7406 14.841C28.9334 15.1748 30.0241 15.7584 30.9257 16.5452C31.8333 15.7215 32.7393 14.8957 33.6438 14.0677C34.1108 13.6225 34.6199 13.1985 35.0799 12.7427C33.7034 11.5742 32.0878 10.665 30.3256 10.067C27.1164 9.00398 23.605 8.97542 20.3756 9.98607Z" fill="white"/>
<path d="M20.3756 9.98606C23.6047 8.97473 27.1161 9.00254 30.3256 10.0649C32.0881 10.6669 33.703 11.5805 35.0776 12.7533C34.6105 13.2092 34.1178 13.6352 33.6415 14.0783C32.7354 14.9035 31.8302 15.7258 30.9257 16.5452C30.0241 15.7584 28.9334 15.1748 27.7406 14.841C26.2143 14.4205 24.5905 14.3918 23.0475 14.7578C21.5044 15.1238 20.1017 15.8705 18.9932 16.9159C18.0256 17.8139 17.2928 18.8996 16.8495 20.0921L12.0088 16.673C13.7415 13.5384 16.7415 11.1407 20.3756 9.98606Z" fill="#E33629"/>
<path d="M10.7245 20.0602C10.9845 18.8838 11.4164 17.7445 12.0088 16.673L16.8495 20.1006C16.2165 21.8019 16.2165 23.6462 16.8495 25.3475C15.2367 26.4837 13.6232 27.6255 12.0088 28.773C10.5264 26.081 10.0742 23.0138 10.7245 20.0602Z" fill="#F8BD00"/>
<path d="M25.2047 20.1986H39.1034C39.5785 22.578 39.4499 25.0251 38.7274 27.3521C38.0624 29.492 36.7708 31.426 34.9912 32.9462C33.429 31.8342 31.8598 30.7308 30.2976 29.6187C31.0721 29.1422 31.7331 28.5278 32.2411 27.8126C32.7491 27.0973 33.0936 26.2958 33.2539 25.4562H25.2047C25.2023 23.7051 25.2047 21.9519 25.2047 20.1986Z" fill="#587DBD"/>
<path d="M12.0065 28.773C13.6208 27.6369 15.2344 26.495 16.8472 25.3475C17.4712 27.0181 18.6579 28.466 20.2378 29.4845C21.2231 30.1201 22.3429 30.5613 23.5257 30.7798C24.691 30.9775 25.8864 30.9775 27.0517 30.7798C28.2138 30.6006 29.3218 30.2015 30.3046 29.6081C31.8668 30.7201 33.436 31.8236 34.9982 32.9356C33.2886 34.3538 31.2046 35.3426 28.9502 35.8051C26.4619 36.3387 23.8688 36.3132 21.3937 35.7305C19.4362 35.2537 17.6077 34.4132 16.0229 33.2615C14.3456 32.0465 12.9756 30.5154 12.0065 28.773Z" fill="#319F43"/>
</g>
<defs>
<clipPath id="clip0_60_10">
<rect width="29.8897" height="27.2676" fill="white" transform="translate(9.96323 9.08922)"/>
</clipPath>
</defs>
</svg>
